<svg aria-roledescription="architecture" role="graphics-document document" viewBox="-318.6761779785156 -257.4814147949219 717.3524169921875 650.1815795898438" style="max-width: 717.3524169921875px;" xmlns="http://www.w3.org/2000/svg" width="100%" id="container"><style>#container{font-family:"trebuchet ms",verdana,arial,sans-serif;font-size:16px;fill:#333;}@keyframes edge-animation-frame{from{stroke-dashoffset:0;}}@keyframes dash{to{stroke-dashoffset:0;}}#container .edge-animation-slow{stroke-dasharray:9,5!important;stroke-dashoffset:900;animation:dash 50s linear infinite;stroke-linecap:round;}#container .edge-animation-fast{stroke-dasharray:9,5!important;stroke-dashoffset:900;animation:dash 20s linear infinite;stroke-linecap:round;}#container .error-icon{fill:#552222;}#container .error-text{fill:#552222;stroke:#552222;}#container .edge-thickness-normal{stroke-width:1px;}#container .edge-thickness-thick{stroke-width:3.5px;}#container .edge-pattern-solid{stroke-dasharray:0;}#container .edge-thickness-invisible{stroke-width:0;fill:none;}#container .edge-pattern-dashed{stroke-dasharray:3;}#container .edge-pattern-dotted{stroke-dasharray:2;}#container .marker{fill:#333333;stroke:#333333;}#container .marker.cross{stroke:#333333;}#container svg{font-family:"trebuchet ms",verdana,arial,sans-serif;font-size:16px;}#container p{margin:0;}#container .edge{stroke-width:3;stroke:#333333;fill:none;}#container .arrow{fill:#333333;}#container .node-bkg{fill:none;stroke:hsl(240, 60%, 86.2745098039%);stroke-width:2px;stroke-dasharray:8;}#container .node-icon-text{display:flex;align-items:center;}#container .node-icon-text&gt;div{color:#fff;margin:1px;height:fit-content;text-align:center;overflow:hidden;display:-webkit-box;-webkit-box-orient:vertical;}#container :root{--mermaid-font-family:"trebuchet ms",verdana,arial,sans-serif;}</style><g></g><g class="architecture-edges"><g><path class="edge" d="M -35.05215840660824,-134.98141815377068 L -95.61417371172446,-134.98141815377068 L-156.17618901684068,-134.98141815377068"></path><polygon class="arrow" transform="translate(-158.17618901684068,-141.64808482043733)" points="0,6.666666666666667 13.333333333333334,0 13.333333333333334,13.333333333333334"></polygon></g><g><path class="edge" d="M -156.17618901684068,288.4814181537707 L 4.947832674673293,288.4814937057821 L4.947841593391757,105.79098876821311"></path><polygon class="arrow" transform="translate(-158.17618901684068,281.814751487104)" points="0,6.666666666666667 13.333333333333334,0 13.333333333333334,13.333333333333334"></polygon><polygon class="arrow" transform="translate(-1.7188250732749095,103.79098876821311)" points="6.666666666666667,0 13.333333333333334,13.333333333333334 0,13.333333333333334"></polygon></g><g><path class="edge" d="M -196.17618901684068,248.48141815377068 L -196.17618901684068,76.75 L-196.17618901684068,-94.98141815377068"></path><polygon class="arrow" transform="translate(-202.84285568350734,237.14808482043733)" points="0,0 13.333333333333334,0 6.666666666666667,13.333333333333334"></polygon></g><g><path class="edge" d="M 236.17618901684065,-134.98141815377068 L 140.5620153051162,-134.98141815377068 L44.94784159339176,-134.98141815377068"></path><polygon class="arrow" transform="translate(42.94784159339176,-141.64808482043733)" points="0,6.666666666666667 13.333333333333334,0 13.333333333333334,13.333333333333334"></polygon></g><g><path class="edge" d="M 44.94784159339176,65.79098876821311 L 276.1775221252657,65.79060527675993 L276.1761890168407,-94.98141815377069"></path><polygon class="arrow" transform="translate(269.509522350174,-96.98141815377069)" points="6.666666666666667,0 13.333333333333334,13.333333333333334 0,13.333333333333334"></polygon></g><g><path class="edge" d="M 4.947841593391757,25.79098876821311 L 4.947841593391757,-34.59521469277878 L4.947841593391757,-94.98141815377068"></path><polygon class="arrow" transform="translate(-1.7188250732749095,-96.98141815377068)" points="6.666666666666667,0 13.333333333333334,13.333333333333334 0,13.333333333333334"></polygon></g></g><g class="architecture-services"><g transform="translate(-35.05215840660824,-174.98141815377068)" class="architecture-service"><g transform="translate(40, 80)" text-anchor="middle" dominant-baseline="middle" alignment-baseline="middle" dy="1em"><g><rect style="stroke: none" class="background"></rect><text style="" y="-10.1"><tspan dy="1.1em" y="-0.1em" x="0" class="text-outer-tspan"><tspan font-weight="normal" class="text-inner-tspan" font-style="normal">HTTP</tspan><tspan font-weight="normal" class="text-inner-tspan" font-style="normal"> API</tspan></tspan></text></g></g><g><g><svg viewBox="0 0 80 80" height="80" width="80" xmlns="http://www.w3.org/2000/svg"><g><rect style="fill: #087ebf; stroke-width: 0px;" height="80" width="80"></rect><rect style="fill: none; stroke: #fff; stroke-miterlimit: 10; stroke-width: 2px;" ry="2" rx="2" height="45" width="45" y="17.5" x="17.5"></rect><line style="fill: none; stroke: #fff; stroke-miterlimit: 10; stroke-width: 2px;" y2="32.5" x2="62.5" y1="32.5" x1="17.5"></line><line style="fill: none; stroke: #fff; stroke-miterlimit: 10; stroke-width: 2px;" y2="47.5" x2="62.5" y1="47.5" x1="17.5"></line><g><path style="fill: #fff; stroke-width: 0px;" d="m56.25,25c0,.27-.45.5-1,.5h-10.5c-.55,0-1-.23-1-.5s.45-.5,1-.5h10.5c.55,0,1,.23,1,.5Z"></path><path style="fill: none; stroke: #fff; stroke-miterlimit: 10;" d="m56.25,25c0,.27-.45.5-1,.5h-10.5c-.55,0-1-.23-1-.5s.45-.5,1-.5h10.5c.55,0,1,.23,1,.5Z"></path></g><g><path style="fill: #fff; stroke-width: 0px;" d="m56.25,40c0,.27-.45.5-1,.5h-10.5c-.55,0-1-.23-1-.5s.45-.5,1-.5h10.5c.55,0,1,.23,1,.5Z"></path><path style="fill: none; stroke: #fff; stroke-miterlimit: 10;" d="m56.25,40c0,.27-.45.5-1,.5h-10.5c-.55,0-1-.23-1-.5s.45-.5,1-.5h10.5c.55,0,1,.23,1,.5Z"></path></g><g><path style="fill: #fff; stroke-width: 0px;" d="m56.25,55c0,.27-.45.5-1,.5h-10.5c-.55,0-1-.23-1-.5s.45-.5,1-.5h10.5c.55,0,1,.23,1,.5Z"></path><path style="fill: none; stroke: #fff; stroke-miterlimit: 10;" d="m56.25,55c0,.27-.45.5-1,.5h-10.5c-.55,0-1-.23-1-.5s.45-.5,1-.5h10.5c.55,0,1,.23,1,.5Z"></path></g><g><circle style="fill: #fff; stroke: #fff; stroke-miterlimit: 10;" r=".75" cy="25" cx="32.5"></circle><circle style="fill: #fff; stroke: #fff; stroke-miterlimit: 10;" r=".75" cy="25" cx="27.5"></circle><circle style="fill: #fff; stroke: #fff; stroke-miterlimit: 10;" r=".75" cy="25" cx="22.5"></circle></g><g><circle style="fill: #fff; stroke: #fff; stroke-miterlimit: 10;" r=".75" cy="40" cx="32.5"></circle><circle style="fill: #fff; stroke: #fff; stroke-miterlimit: 10;" r=".75" cy="40" cx="27.5"></circle><circle style="fill: #fff; stroke: #fff; stroke-miterlimit: 10;" r=".75" cy="40" cx="22.5"></circle></g><g><circle style="fill: #fff; stroke: #fff; stroke-miterlimit: 10;" r=".75" cy="55" cx="32.5"></circle><circle style="fill: #fff; stroke: #fff; stroke-miterlimit: 10;" r=".75" cy="55" cx="27.5"></circle><circle style="fill: #fff; stroke: #fff; stroke-miterlimit: 10;" r=".75" cy="55" cx="22.5"></circle></g></g></svg></g></g></g><g transform="translate(-35.05215840660824,25.79098876821311)" class="architecture-service"><g transform="translate(40, 80)" text-anchor="middle" dominant-baseline="middle" alignment-baseline="middle" dy="1em"><g><rect style="stroke: none" class="background"></rect><text style="" y="-10.1"><tspan dy="1.1em" y="-0.1em" x="0" class="text-outer-tspan"><tspan font-weight="normal" class="text-inner-tspan" font-style="normal">Worker</tspan></tspan></text></g></g><g><g><svg viewBox="0 0 80 80" height="80" width="80" xmlns="http://www.w3.org/2000/svg"><g><rect style="fill: #087ebf; stroke-width: 0px;" height="80" width="80"></rect><rect style="fill: none; stroke: #fff; stroke-miterlimit: 10; stroke-width: 2px;" ry="2" rx="2" height="45" width="45" y="17.5" x="17.5"></rect><line style="fill: none; stroke: #fff; stroke-miterlimit: 10; stroke-width: 2px;" y2="32.5" x2="62.5" y1="32.5" x1="17.5"></line><line style="fill: none; stroke: #fff; stroke-miterlimit: 10; stroke-width: 2px;" y2="47.5" x2="62.5" y1="47.5" x1="17.5"></line><g><path style="fill: #fff; stroke-width: 0px;" d="m56.25,25c0,.27-.45.5-1,.5h-10.5c-.55,0-1-.23-1-.5s.45-.5,1-.5h10.5c.55,0,1,.23,1,.5Z"></path><path style="fill: none; stroke: #fff; stroke-miterlimit: 10;" d="m56.25,25c0,.27-.45.5-1,.5h-10.5c-.55,0-1-.23-1-.5s.45-.5,1-.5h10.5c.55,0,1,.23,1,.5Z"></path></g><g><path style="fill: #fff; stroke-width: 0px;" d="m56.25,40c0,.27-.45.5-1,.5h-10.5c-.55,0-1-.23-1-.5s.45-.5,1-.5h10.5c.55,0,1,.23,1,.5Z"></path><path style="fill: none; stroke: #fff; stroke-miterlimit: 10;" d="m56.25,40c0,.27-.45.5-1,.5h-10.5c-.55,0-1-.23-1-.5s.45-.5,1-.5h10.5c.55,0,1,.23,1,.5Z"></path></g><g><path style="fill: #fff; stroke-width: 0px;" d="m56.25,55c0,.27-.45.5-1,.5h-10.5c-.55,0-1-.23-1-.5s.45-.5,1-.5h10.5c.55,0,1,.23,1,.5Z"></path><path style="fill: none; stroke: #fff; stroke-miterlimit: 10;" d="m56.25,55c0,.27-.45.5-1,.5h-10.5c-.55,0-1-.23-1-.5s.45-.5,1-.5h10.5c.55,0,1,.23,1,.5Z"></path></g><g><circle style="fill: #fff; stroke: #fff; stroke-miterlimit: 10;" r=".75" cy="25" cx="32.5"></circle><circle style="fill: #fff; stroke: #fff; stroke-miterlimit: 10;" r=".75" cy="25" cx="27.5"></circle><circle style="fill: #fff; stroke: #fff; stroke-miterlimit: 10;" r=".75" cy="25" cx="22.5"></circle></g><g><circle style="fill: #fff; stroke: #fff; stroke-miterlimit: 10;" r=".75" cy="40" cx="32.5"></circle><circle style="fill: #fff; stroke: #fff; stroke-miterlimit: 10;" r=".75" cy="40" cx="27.5"></circle><circle style="fill: #fff; stroke: #fff; stroke-miterlimit: 10;" r=".75" cy="40" cx="22.5"></circle></g><g><circle style="fill: #fff; stroke: #fff; stroke-miterlimit: 10;" r=".75" cy="55" cx="32.5"></circle><circle style="fill: #fff; stroke: #fff; stroke-miterlimit: 10;" r=".75" cy="55" cx="27.5"></circle><circle style="fill: #fff; stroke: #fff; stroke-miterlimit: 10;" r=".75" cy="55" cx="22.5"></circle></g></g></svg></g></g></g><g transform="translate(-236.17618901684068,-174.98141815377068)" class="architecture-service"><g transform="translate(40, 80)" text-anchor="middle" dominant-baseline="middle" alignment-baseline="middle" dy="1em"><g><rect style="stroke: none" class="background"></rect><text style="" y="-10.1"><tspan dy="1.1em" y="-0.1em" x="0" class="text-outer-tspan"><tspan font-weight="normal" class="text-inner-tspan" font-style="normal">Session</tspan></tspan></text></g></g><g><g><svg viewBox="0 0 80 80" height="80" width="80" xmlns="http://www.w3.org/2000/svg"><g><rect style="fill: #087ebf; stroke-width: 0px;" height="80" width="80"></rect><circle style="fill: none; stroke: #fff; stroke-miterlimit: 10; stroke-width: 2px;" r="22.5" cy="40" cx="40"></circle><line style="fill: none; stroke: #fff; stroke-miterlimit: 10; stroke-width: 2px;" y2="62.5" x2="40" y1="17.5" x1="40"></line><line style="fill: none; stroke: #fff; stroke-miterlimit: 10; stroke-width: 2px;" y2="40" x2="62.5" y1="40" x1="17.5"></line><path style="fill: none; stroke: #fff; stroke-miterlimit: 10; stroke-width: 2px;" d="m39.99,17.51c-15.28,11.1-15.28,33.88,0,44.98"></path><path style="fill: none; stroke: #fff; stroke-miterlimit: 10; stroke-width: 2px;" d="m40.01,17.51c15.28,11.1,15.28,33.88,0,44.98"></path><line style="fill: none; stroke: #fff; stroke-miterlimit: 10; stroke-width: 2px;" y2="30.1" x2="60.25" y1="30.1" x1="19.75"></line><line style="fill: none; stroke: #fff; stroke-miterlimit: 10; stroke-width: 2px;" y2="49.9" x2="60.25" y1="49.9" x1="19.75"></line></g></svg></g></g></g><g transform="translate(-236.17618901684068,248.48141815377068)" class="architecture-service"><g transform="translate(40, 80)" text-anchor="middle" dominant-baseline="middle" alignment-baseline="middle" dy="1em"><g><rect style="stroke: none" class="background"></rect><text style="" y="-10.1"><tspan dy="1.1em" y="-0.1em" x="0" class="text-outer-tspan"><tspan font-weight="normal" class="text-inner-tspan" font-style="normal">Redis</tspan></tspan></text></g></g><g><g><svg viewBox="0 0 80 80" height="80" width="80" xmlns="http://www.w3.org/2000/svg"><g><rect style="fill: #087ebf; stroke-width: 0px;" height="80" width="80"></rect><path style="fill: none; stroke: #fff; stroke-miterlimit: 10; stroke-width: 2px;" d="m20,57.86c0,3.94,8.95,7.14,20,7.14s20-3.2,20-7.14" data-name="4" id="IconifyId1990a1d84a0346b3d0"></path><path style="fill: none; stroke: #fff; stroke-miterlimit: 10; stroke-width: 2px;" d="m20,45.95c0,3.94,8.95,7.14,20,7.14s20-3.2,20-7.14" data-name="3" id="IconifyId1990a1d84a0346b3d1"></path><path style="fill: none; stroke: #fff; stroke-miterlimit: 10; stroke-width: 2px;" d="m20,34.05c0,3.94,8.95,7.14,20,7.14s20-3.2,20-7.14" data-name="2" id="IconifyId1990a1d84a0346b3d2"></path><ellipse style="fill: none; stroke: #fff; stroke-miterlimit: 10; stroke-width: 2px;" ry="7.14" rx="20" cy="22.14" cx="40" data-name="1" id="IconifyId1990a1d84a0346b3d3"></ellipse><line style="fill: none; stroke: #fff; stroke-miterlimit: 10; stroke-width: 2px;" y2="22.14" x2="20" y1="57.86" x1="20"></line><line style="fill: none; stroke: #fff; stroke-miterlimit: 10; stroke-width: 2px;" y2="22.14" x2="60" y1="57.86" x1="60"></line></g></svg></g></g></g><g transform="translate(236.17618901684068,-174.98141815377068)" class="architecture-service"><g transform="translate(40, 80)" text-anchor="middle" dominant-baseline="middle" alignment-baseline="middle" dy="1em"><g><rect style="stroke: none" class="background"></rect><text style="" y="-10.1"><tspan dy="1.1em" y="-0.1em" x="0" class="text-outer-tspan"><tspan font-weight="normal" class="text-inner-tspan" font-style="normal">HTTP</tspan><tspan font-weight="normal" class="text-inner-tspan" font-style="normal"> API</tspan></tspan></text></g></g><g><g><svg viewBox="0 0 80 80" height="80" width="80" xmlns="http://www.w3.org/2000/svg"><g><rect style="fill: #087ebf; stroke-width: 0px;" height="80" width="80"></rect><circle style="fill: none; stroke: #fff; stroke-miterlimit: 10; stroke-width: 2px;" r="22.5" cy="40" cx="40"></circle><line style="fill: none; stroke: #fff; stroke-miterlimit: 10; stroke-width: 2px;" y2="62.5" x2="40" y1="17.5" x1="40"></line><line style="fill: none; stroke: #fff; stroke-miterlimit: 10; stroke-width: 2px;" y2="40" x2="62.5" y1="40" x1="17.5"></line><path style="fill: none; stroke: #fff; stroke-miterlimit: 10; stroke-width: 2px;" d="m39.99,17.51c-15.28,11.1-15.28,33.88,0,44.98"></path><path style="fill: none; stroke: #fff; stroke-miterlimit: 10; stroke-width: 2px;" d="m40.01,17.51c15.28,11.1,15.28,33.88,0,44.98"></path><line style="fill: none; stroke: #fff; stroke-miterlimit: 10; stroke-width: 2px;" y2="30.1" x2="60.25" y1="30.1" x1="19.75"></line><line style="fill: none; stroke: #fff; stroke-miterlimit: 10; stroke-width: 2px;" y2="49.9" x2="60.25" y1="49.9" x1="19.75"></line></g></svg></g></g></g></g><g class="architecture-groups"><rect class="node-bkg" height="382.7724069219838" width="366.12403061023247" y="-217.48141815377068" x="-278.6761890168407"></rect><g><g transform="translate(-277.6761890168407, -216.48141815377068)"><g><svg viewBox="0 0 80 80" height="30" width="30" xmlns="http://www.w3.org/2000/svg"><g><rect style="fill: #087ebf; stroke-width: 0px;" height="80" width="80"></rect><path style="fill: none; stroke: #fff; stroke-miterlimit: 10; stroke-width: 2px;" d="m65,47.5c0,2.76-2.24,5-5,5H20c-2.76,0-5-2.24-5-5,0-1.87,1.03-3.51,2.56-4.36-.04-.21-.06-.42-.06-.64,0-2.6,2.48-4.74,5.65-4.97,1.65-4.51,6.34-7.76,11.85-7.76.86,0,1.69.08,2.5.23,2.09-1.57,4.69-2.5,7.5-2.5,6.1,0,11.19,4.38,12.28,10.17,2.14.56,3.72,2.51,3.72,4.83,0,.03,0,.07-.01.1,2.29.46,4.01,2.48,4.01,4.9Z"></path></g></svg></g></g><g transform="translate(-244.67618901684068, -210.48141815377068)" text-anchor="start" dominant-baseline="start" alignment-baseline="middle" dy="1em"><g><rect style="stroke: none" class="background"></rect><text style="" y="-10.1"><tspan dy="1.1em" y="-0.1em" x="0" class="text-outer-tspan"><tspan font-weight="normal" class="text-inner-tspan" font-style="normal">WAHA</tspan></tspan></text></g></g></g><rect class="node-bkg" height="182" width="165" y="-217.48141815377068" x="193.67618901684068"></rect><g><g transform="translate(194.67618901684068, -216.48141815377068)"><g><svg viewBox="0 0 80 80" height="30" width="30" xmlns="http://www.w3.org/2000/svg"><g><rect style="fill: #087ebf; stroke-width: 0px;" height="80" width="80"></rect><path style="fill: none; stroke: #fff; stroke-miterlimit: 10; stroke-width: 2px;" d="m65,47.5c0,2.76-2.24,5-5,5H20c-2.76,0-5-2.24-5-5,0-1.87,1.03-3.51,2.56-4.36-.04-.21-.06-.42-.06-.64,0-2.6,2.48-4.74,5.65-4.97,1.65-4.51,6.34-7.76,11.85-7.76.86,0,1.69.08,2.5.23,2.09-1.57,4.69-2.5,7.5-2.5,6.1,0,11.19,4.38,12.28,10.17,2.14.56,3.72,2.51,3.72,4.83,0,.03,0,.07-.01.1,2.29.46,4.01,2.48,4.01,4.9Z"></path></g></svg></g></g><g transform="translate(227.67618901684068, -210.48141815377068)" text-anchor="start" dominant-baseline="start" alignment-baseline="middle" dy="1em"><g><rect style="stroke: none" class="background"></rect><text style="" y="-10.1"><tspan dy="1.1em" y="-0.1em" x="0" class="text-outer-tspan"><tspan font-weight="normal" class="text-inner-tspan" font-style="normal">ChatWoot</tspan></tspan></text></g></g></g></g></svg>