<svg width="60" height="60" viewBox="0 0 60 60" fill="none" xmlns="http://www.w3.org/2000/svg">
<path fill-rule="evenodd" clip-rule="evenodd" d="M42.5215 12.4646C42.287 13.3538 41.3874 13.8814 40.5121 13.6432C39.6369 13.405 39.1175 12.4911 39.3521 11.602L40.7675 6.23575C41.002 5.34664 41.9016 4.81897 42.7769 5.0572C43.652 5.29542 44.1714 6.20931 43.9369 7.09842L42.5215 12.4646ZM45.1904 15.5684C45.8312 16.2193 46.8699 16.2193 47.5106 15.5684L51.3776 11.6401C52.0183 10.9892 52.0183 9.93398 51.3776 9.28309C50.7368 8.6322 49.6981 8.6322 49.0574 9.28309L45.1904 13.2114C44.5497 13.8623 44.5497 14.9175 45.1904 15.5684ZM47.086 20.321C47.3205 21.2101 48.2201 21.7378 49.0953 21.4995L54.3777 20.0616C55.2529 19.8234 55.7724 18.9095 55.5379 18.0204C55.3034 17.1313 54.4038 16.6036 53.5285 16.842L48.2462 18.2799C47.3708 18.518 46.8515 19.4319 47.086 20.321ZM54.3086 25L35.3984 25C34.3197 25 33.5345 23.9605 33.8137 22.902L35.7183 15.6809C36.246 13.6804 35.0773 11.6241 33.1081 11.0881C31.1389 10.5521 29.1148 11.7393 28.5871 13.7398L27.6806 17.1764C26.4636 21.7911 22.347 25 17.6441 25L12.9375 25L12.9375 50.5556L15.9453 50.5556L16.7656 51.6667C18.3148 53.765 20.7461 55 23.3281 55L37.6836 55C39.7223 55 41.375 53.3211 41.375 51.25C41.375 49.1789 39.7223 47.5 37.6836 47.5L39.8711 47.5C41.9098 47.5 43.5625 45.8211 43.5625 43.75C43.5625 41.6789 41.9098 40 39.8711 40L42.0586 40C44.0973 40 45.75 38.3211 45.75 36.25C45.75 34.1789 44.0973 32.5 42.0586 32.5L54.3086 32.5C56.3473 32.5 58 30.8211 58 28.75C58 26.6789 56.3473 25 54.3086 25ZM3.64062 21.6666L8.01563 21.6666C8.92169 21.6666 9.65625 22.4129 9.65625 23.3333L9.65625 52.2222C9.65625 53.1427 8.92169 53.8889 8.01563 53.8889L3.64062 53.8889C2.73456 53.8889 2 53.1427 2 52.2222L2 23.3333C2 22.4129 2.73456 21.6666 3.64062 21.6666Z" fill="url(#paint0_linear_1193_1347)"/>
<defs>
<linearGradient id="paint0_linear_1193_1347" x1="-14.5" y1="37.508" x2="54.5" y2="37.508" gradientUnits="userSpaceOnUse">
    <stop stop-color="#388716"/>
    <stop offset="0.302083" stop-color="#388716"/>
    <stop offset="0.665653" stop-color="#388716"/>
    <stop offset="0.989236" stop-color="#388716"/>
</linearGradient>
</defs>
</svg>
