<svg width="60" height="60" viewBox="0 0 60 60" fill="none" xmlns="http://www.w3.org/2000/svg">
<circle cx="30" cy="30" r="30" fill="url(#paint0_linear_1193_1337)"/>
<path d="M17.3739 29.6305C17.3739 26.9972 18.0076 24.5092 19.1303 22.3107C15.2157 24.0403 12.4772 27.9595 12.4772 32.5067C12.4772 34.3078 12.9136 36.0819 13.743 37.6675L12.2733 42.5132C12.1582 42.892 12.2617 43.3031 12.5412 43.5831C12.7456 43.7874 13.0199 43.8977 13.3001 43.8977C13.4042 43.8977 13.5092 43.8824 13.6116 43.8515L18.4573 42.3818C20.0429 43.211 21.817 43.6476 23.6181 43.6476C24.1875 43.6476 24.7472 43.6044 25.2936 43.5214C20.5558 40.7032 17.3739 35.532 17.3739 29.6305Z" fill="white"/>
<path d="M45.8819 36.2281C46.9618 34.2072 47.5309 31.9364 47.5309 29.6305C47.5309 21.9079 41.2479 15.625 33.5253 15.625C25.8028 15.625 19.52 21.9079 19.52 29.6305C19.52 37.3531 25.8028 43.6358 33.5253 43.6358C35.8312 43.6358 38.1022 43.067 40.1229 41.9868L46.4675 43.911C46.5699 43.9419 46.6749 43.9572 46.779 43.9572C47.0592 43.9572 47.3335 43.8472 47.5376 43.6428C47.8176 43.3631 47.9209 42.9515 47.8058 42.5727L45.8819 36.2281ZM35.1367 34.6603H28.6393C28.0467 34.6603 27.5661 34.1797 27.5661 33.5873C27.5661 32.9945 28.0467 32.5141 28.6393 32.5141H35.1367C35.729 32.5141 36.2094 32.9945 36.2094 33.5873C36.2094 34.1797 35.729 34.6603 35.1367 34.6603ZM38.4114 30.7037H28.6393C28.0467 30.7037 27.5661 30.2235 27.5661 29.6307C27.5661 29.0381 28.0467 28.5578 28.6393 28.5578H38.4114C39.0039 28.5578 39.4845 29.0381 39.4845 29.6307C39.4845 30.2235 39.0039 30.7037 38.4114 30.7037ZM38.4114 26.7475H28.6393C28.0467 26.7475 27.5661 26.2669 27.5661 25.6746C27.5661 25.082 28.0467 24.6014 28.6393 24.6014H38.4114C39.0039 24.6014 39.4845 25.082 39.4845 25.6746C39.4845 26.2669 39.0039 26.7475 38.4114 26.7475Z" fill="white"/>
<defs>
<linearGradient id="paint0_linear_1193_1337" x1="-9.67742" y1="30" x2="66.7742" y2="30" gradientUnits="userSpaceOnUse">
    <stop stop-color="#388716"/>
    <stop offset="0.302083" stop-color="#388716"/>
    <stop offset="0.665653" stop-color="#388716"/>
    <stop offset="0.989236" stop-color="#388716"/>
</linearGradient>
</defs>
</svg>
