<svg width="60" height="60" viewBox="0 0 60 60" fill="none" xmlns="http://www.w3.org/2000/svg">
<circle cx="30" cy="30" r="30" fill="url(#paint0_linear_1193_1360)"/>
<path d="M33.0303 33.0242L34.24 33.0242L34.24 34.2339L33.0303 34.2339L33.0303 33.0242Z" fill="white"/>
<path d="M37.9836 13.0645L34.2699 13.0645L34.0582 14.2742C33.8526 16.0222 32.8486 17.504 31.6933 17.4556L28.3062 17.4556C27.1389 17.504 26.1469 16.0161 25.9413 14.2742L25.7296 13.0645L22.0159 13.0645C21.2138 13.0645 20.4446 13.3831 19.8775 13.9503C19.3103 14.5174 18.9917 15.2866 18.9917 16.0887L18.9917 43.9113C18.9917 44.7134 19.3103 45.4826 19.8775 46.0497C20.4446 46.6169 21.2138 46.9355 22.0159 46.9355L37.9836 46.9355C38.3808 46.9355 38.774 46.8573 39.1409 46.7053C39.5079 46.5533 39.8412 46.3305 40.1221 46.0497C40.4029 45.7689 40.6256 45.4355 40.7776 45.0686C40.9296 44.7017 41.0078 44.3084 41.0078 43.9113L41.0078 16.0887C41.0078 15.6916 40.9296 15.2983 40.7776 14.9314C40.6256 14.5645 40.4029 14.2311 40.1221 13.9503C39.8412 13.6695 39.5079 13.4467 39.1409 13.2947C38.774 13.1427 38.3808 13.0645 37.9836 13.0645ZM31.8143 26.371C31.8143 26.2106 31.878 26.0567 31.9914 25.9433C32.1049 25.8299 32.2587 25.7661 32.4191 25.7661C32.5795 25.7661 32.7334 25.8299 32.8468 25.9433C32.9602 26.0567 33.024 26.2106 33.024 26.371L33.024 26.9758L34.2336 26.9758L34.2336 25.7661L33.6288 25.7661C33.4684 25.7661 33.3145 25.7024 33.2011 25.589C33.0877 25.4755 33.024 25.3217 33.024 25.1613C33.024 25.0009 33.0877 24.847 33.2011 24.7336C33.3145 24.6202 33.4684 24.5564 33.6288 24.5564L34.8385 24.5564C34.9989 24.5564 35.1527 24.6202 35.2662 24.7336C35.3796 24.847 35.4433 25.0009 35.4433 25.1613L35.4433 27.5806C35.4433 27.7411 35.3796 27.8949 35.2662 28.0083C35.1527 28.1218 34.9989 28.1855 34.8385 28.1855L32.4191 28.1855C32.2587 28.1855 32.1049 28.1218 31.9914 28.0083C31.878 27.8949 31.8143 27.7411 31.8143 27.5806L31.8143 26.371ZM34.8385 30.6048L32.4191 30.6048C32.2587 30.6048 32.1049 30.5411 31.9914 30.4277C31.878 30.3143 31.8143 30.1604 31.8143 30C31.8143 29.8396 31.878 29.6857 31.9914 29.5723C32.1049 29.4589 32.2587 29.3952 32.4191 29.3952L34.8385 29.3952C34.9989 29.3952 35.1527 29.4589 35.2662 29.5723C35.3796 29.6857 35.4433 29.8396 35.4433 30C35.4433 30.1604 35.3796 30.3143 35.2662 30.4277C35.1527 30.5411 34.9989 30.6048 34.8385 30.6048ZM31.8143 32.4194C31.8143 32.2589 31.878 32.1051 31.9914 31.9917C32.1049 31.8782 32.2587 31.8145 32.4191 31.8145L34.8385 31.8145C34.9989 31.8145 35.1527 31.8782 35.2662 31.9917C35.3796 32.1051 35.4433 32.2589 35.4433 32.4194L35.4433 34.8387C35.4433 34.9991 35.3796 35.153 35.2662 35.2664C35.1527 35.3798 34.9989 35.4435 34.8385 35.4435C31.2094 35.3891 31.8748 36.0484 31.8143 32.4194ZM29.3949 22.7419C29.3949 22.5815 29.4587 22.4277 29.5721 22.3142C29.6855 22.2008 29.8394 22.1371 29.9998 22.1371C30.1602 22.1371 30.314 22.2008 30.4275 22.3142C30.5409 22.4277 30.6046 22.5815 30.6046 22.7419L30.6046 25.1613C30.6046 25.3217 30.5409 25.4755 30.4275 25.589C30.314 25.7024 30.1602 25.7661 29.9998 25.7661C29.8394 25.7661 29.6855 25.7024 29.5721 25.589C29.4587 25.4755 29.3949 25.3217 29.3949 25.1613L29.3949 22.7419ZM29.3949 32.1956C29.3949 32.0352 29.4587 31.8813 29.5721 31.7679C29.6855 31.6544 29.8394 31.5907 29.9998 31.5907C30.1602 31.5907 30.314 31.6544 30.4275 31.7679C30.5409 31.8813 30.6046 32.0352 30.6046 32.1956L30.6046 35.0625C30.6046 35.2229 30.5409 35.3768 30.4275 35.4902C30.314 35.6036 30.1602 35.6673 29.9998 35.6673C29.8394 35.6673 29.6855 35.6036 29.5721 35.4902C29.4587 35.3768 29.3949 35.2229 29.3949 35.0625L29.3949 32.1956ZM22.1369 22.7419C22.1369 22.5815 22.2006 22.4277 22.314 22.3142C22.4274 22.2008 22.5813 22.1371 22.7417 22.1371L27.6107 22.1371C27.7711 22.1371 27.9249 22.2008 28.0383 22.3142C28.1518 22.4277 28.2155 22.5815 28.2155 22.7419C28.2155 22.9023 28.1518 23.0562 28.0383 23.1696C27.9249 23.283 27.7711 23.3468 27.6107 23.3468L23.3465 23.3468L23.3465 27.5806C23.3465 27.7411 23.2828 27.8949 23.1694 28.0083C23.056 28.1218 22.9021 28.1855 22.7417 28.1855C22.5813 28.1855 22.4274 28.1218 22.314 28.0083C22.2006 27.8949 22.1369 27.7411 22.1369 27.5806L22.1369 22.7419ZM24.5562 32.4194C24.5562 32.2589 24.6199 32.1051 24.7334 31.9917C24.8468 31.8782 25.0006 31.8145 25.1611 31.8145L26.3707 31.8145C26.5311 31.8145 26.685 31.8782 26.7984 31.9917C26.9118 32.1051 26.9756 32.2589 26.9756 32.4194C26.9756 32.5798 26.9118 32.7336 26.7984 32.847C26.685 32.9605 26.5311 33.0242 26.3707 33.0242L25.7659 33.0242L25.7659 34.2339L26.9756 34.2339L26.9756 33.629C26.9756 33.4686 27.0393 33.3148 27.1527 33.2013C27.2662 33.0879 27.42 33.0242 27.5804 33.0242C27.7408 33.0242 27.8947 33.0879 28.0081 33.2013C28.1215 33.3148 28.1852 33.4686 28.1852 33.629L28.1852 34.8387C28.1852 34.9991 28.1215 35.153 28.0081 35.2664C27.8947 35.3798 27.7408 35.4435 27.5804 35.4435L25.1611 35.4435C25.0006 35.4435 24.8468 35.3798 24.7334 35.2664C24.6199 35.153 24.5562 34.9991 24.5562 34.8387L24.5562 32.4194ZM22.7417 30.6048C22.5813 30.6048 22.4274 30.5411 22.314 30.4277C22.2006 30.3143 22.1369 30.1604 22.1369 30C22.1369 29.8396 22.2006 29.6857 22.314 29.5723C22.4274 29.4589 22.5813 29.3952 22.7417 29.3952L25.1611 29.3952C25.3215 29.3952 25.4753 29.4589 25.5887 29.5723C25.7022 29.6857 25.7659 29.8396 25.7659 30C25.7659 30.1604 25.7022 30.3143 25.5887 30.4277C25.4753 30.5411 25.3215 30.6048 25.1611 30.6048L22.7417 30.6048ZM27.5804 28.1855C23.9514 28.131 24.6107 28.7903 24.5562 25.1613C24.5562 25.0009 24.6199 24.847 24.7334 24.7336C24.8468 24.6202 25.0006 24.5564 25.1611 24.5564L27.5804 24.5564C27.7408 24.5564 27.8947 24.6202 28.0081 24.7336C28.1215 24.847 28.1852 25.0009 28.1852 25.1613L28.1852 27.5806C28.1852 27.7411 28.1215 27.8949 28.0081 28.0083C27.8947 28.1218 27.7408 28.1855 27.5804 28.1855ZM22.1369 37.2581L22.1369 32.4194C22.1369 32.2589 22.2006 32.1051 22.314 31.9917C22.4274 31.8782 22.5813 31.8145 22.7417 31.8145C22.9021 31.8145 23.056 31.8782 23.1694 31.9917C23.2828 32.1051 23.3465 32.2589 23.3465 32.4194L23.3465 36.6532L27.6107 36.6532C27.7711 36.6532 27.9249 36.7169 28.0383 36.8304C28.1518 36.9438 28.2155 37.0977 28.2155 37.2581C28.2155 37.4185 28.1518 37.5723 28.0383 37.6857C27.9249 37.7992 27.7711 37.8629 27.6107 37.8629L22.7417 37.8629C22.5813 37.8629 22.4274 37.7992 22.314 37.6857C22.2006 37.5723 22.1369 37.4185 22.1369 37.2581ZM31.8687 42.7016L28.1852 42.7016C28.0248 42.7016 27.871 42.6379 27.7576 42.5245C27.6441 42.411 27.5804 42.2572 27.5804 42.0968C27.5804 41.9364 27.6441 41.7825 27.7576 41.6691C27.871 41.5557 28.0248 41.4919 28.1852 41.4919L31.8869 41.4919C32.0473 41.4943 32.2002 41.5604 32.3119 41.6755C32.4236 41.7906 32.485 41.9454 32.4826 42.1058C32.4802 42.2663 32.4142 42.4191 32.2991 42.5309C32.1839 42.6426 32.0291 42.704 31.8687 42.7016ZM37.8627 37.2581C37.8627 37.4185 37.7989 37.5723 37.6855 37.6857C37.5721 37.7992 37.4182 37.8629 37.2578 37.8629L32.4191 37.8629C32.2587 37.8629 32.1049 37.7992 31.9914 37.6857C31.878 37.5723 31.8143 37.4185 31.8143 37.2581C31.8143 37.0977 31.878 36.9438 31.9914 36.8304C32.1049 36.7169 32.2587 36.6532 32.4191 36.6532L36.653 36.6532L36.653 32.4194C36.653 32.2589 36.7167 32.1051 36.8301 31.9917C36.9436 31.8782 37.0974 31.8145 37.2578 31.8145C37.4182 31.8145 37.5721 31.8782 37.6855 31.9917C37.7989 32.1051 37.8627 32.2589 37.8627 32.4194L37.8627 37.2581ZM37.8627 27.5806C37.8627 27.7411 37.7989 27.8949 37.6855 28.0083C37.5721 28.1218 37.4182 28.1855 37.2578 28.1855C37.0974 28.1855 36.9436 28.1218 36.8301 28.0083C36.7167 27.8949 36.653 27.7411 36.653 27.5806L36.653 23.3468L32.4191 23.3468C32.2587 23.3468 32.1049 23.283 31.9914 23.1696C31.878 23.0562 31.8143 22.9023 31.8143 22.7419C31.8143 22.5815 31.878 22.4277 31.9914 22.3142C32.1049 22.2008 32.2587 22.1371 32.4191 22.1371L37.2578 22.1371C37.4182 22.1371 37.5721 22.2008 37.6855 22.3142C37.7989 22.4277 37.8627 22.5815 37.8627 22.7419L37.8627 27.5806Z" fill="white"/>
<path d="M25.7783 25.7661L26.988 25.7661L26.988 26.9758L25.7783 26.9758L25.7783 25.7661Z" fill="white"/>
<path d="M27.1752 14.3286C27.3808 15.5383 27.9131 16.246 28.3062 16.246L31.6933 16.246C32.0925 16.246 32.649 15.4415 32.8365 14.2742L33.024 13.0645L26.9756 13.0645L27.1812 14.2742L27.1752 14.3286Z" fill="white"/>
<defs>
<linearGradient id="paint0_linear_1193_1360" x1="-9.67742" y1="30" x2="66.7742" y2="30" gradientUnits="userSpaceOnUse">
    <stop stop-color="#388716"/>
    <stop offset="0.302083" stop-color="#388716"/>
    <stop offset="0.665653" stop-color="#388716"/>
    <stop offset="0.989236" stop-color="#388716"/>
</linearGradient>
</defs>
</svg>
