<?xml version="1.0" encoding="UTF-8" standalone="no" ?>
<!DOCTYPE svg PUBLIC "-//W3C//DTD SVG 1.1//EN" "http://www.w3.org/Graphics/SVG/1.1/DTD/svg11.dtd">
<svg xmlns="http://www.w3.org/2000/svg" xmlns:xlink="http://www.w3.org/1999/xlink" version="1.1" width="500" height="500" viewBox="370 370 340 340" xml:space="preserve">
<desc>Created with Fabric.js 5.2.4</desc>
<defs>
</defs>
<g transform="matrix(1 0 0 1 540 540)" id="38587ac3-6dee-45f6-9b2b-7e8122b2a61e"  >
<rect style="stroke: none; stroke-width: 1; stroke-dasharray: none; stroke-linecap: butt; stroke-dashoffset: 0; stroke-linejoin: miter; stroke-miterlimit: 4; fill: rgb(255,255,255); fill-rule: nonzero; opacity: 1; visibility: hidden;" vector-effect="non-scaling-stroke"  x="-540" y="-540" rx="0" ry="0" width="1080" height="1080" />
</g>
<g transform="matrix(1 0 0 1 540 540)" id="817d832f-24b5-4ec0-a681-e211079e447c"  >
</g>
<g transform="matrix(1 0 0 1 540 540)"  >
<linearGradient id="SVGID_SVGID_1__3" gradientUnits="userSpaceOnUse" gradientTransform="matrix(1 0 0 1 0 0)"  x1="354" y1="33.1905" x2="354" y2="342.247">
<stop offset="0%" style="stop-color:#388716;stop-opacity: 1"/>
<stop offset="100%" style="stop-color:#388716;stop-opacity: 1"/>
</linearGradient>
<path style="stroke: none; stroke-width: 1; stroke-dasharray: none; stroke-linecap: butt; stroke-dashoffset: 0; stroke-linejoin: miter; stroke-miterlimit: 4; fill: url(#SVGID_SVGID_1__3); fill-rule: nonzero; opacity: 1;" vector-effect="non-scaling-stroke"  transform=" translate(-353.99, -190.49)" d="M 460.81 83.14 C 432.58 54.870000000000005 395.03 39.3 355.01 39.28 C 272.57 39.28 205.48 106.35 205.44 188.8 C 205.43 215.15 212.32 240.88 225.4 263.55 L 204.57 318.41 C 199.38 332.1 212.6 345.58000000000004 226.38 340.66 L 283.47 320.24 C 305.32000000000005 332.14 329.92 338.42 354.94000000000005 338.43 L 355.00000000000006 338.43 C 437.43000000000006 338.43 504.5400000000001 271.36 504.57000000000005 188.91 C 504.59 148.96 489.06 111.4 460.81 83.14 z M 355.01 309.03 L 354.96 309.03 C 333.4 309.03 312.26 303.23999999999995 293.81 292.28999999999996 L 289.42 289.67999999999995 L 243.94000000000003 301.60999999999996 L 256.07000000000005 257.28 L 253.22000000000006 252.73999999999998 C 241.19000000000005 233.60999999999999 234.83000000000004 211.51 234.85000000000005 188.80999999999997 C 234.88000000000005 122.56999999999998 288.78000000000003 68.68999999999997 355.06000000000006 68.68999999999997 C 387.1500000000001 68.69999999999997 417.33000000000004 81.21999999999997 440.01000000000005 103.91999999999996 C 462.70000000000005 126.62999999999997 475.18000000000006 156.81999999999996 475.1700000000001 188.90999999999997 C 475.15 255.15 421.24 309.03 355.01 309.03 z" stroke-linecap="round" />
</g>
<g transform="matrix(1 0 0 1 541.36 539.35)"  >
<linearGradient id="SVGID_SVGID_00000124882716469788191920000005815286723783494804__4" gradientUnits="userSpaceOnUse" gradientTransform="matrix(1 0 0 1 0 0)"  x1="355.3568" y1="33.1905" x2="355.3568" y2="342.247">
<stop offset="0%" style="stop-color:#388716;stop-opacity: 1"/>
<stop offset="100%" style="stop-color:#388716;stop-opacity: 1"/>
</linearGradient>
<path style="stroke: none; stroke-width: 1; stroke-dasharray: none; stroke-linecap: butt; stroke-dashoffset: 0; stroke-linejoin: miter; stroke-miterlimit: 4; fill: url(#SVGID_SVGID_00000124882716469788191920000005815286723783494804__4); fill-rule: nonzero; opacity: 1;" vector-effect="non-scaling-stroke"  transform=" translate(-355.36, -189.84)" d="M 283.3 197.51 L 283.3 197.51 C 273.35 197.51 266.32 207.17999999999998 269.28000000000003 216.68 C 278.06 244.88 300.31000000000006 267.13 328.51000000000005 275.91 C 338.01000000000005 278.87 347.68000000000006 271.85 347.68000000000006 261.89000000000004 L 347.68000000000006 261.89000000000004 C 347.68000000000006 255.42000000000004 343.43000000000006 249.76000000000005 337.25000000000006 247.83000000000004 C 318.27000000000004 241.90000000000003 303.2900000000001 226.92000000000004 297.36000000000007 207.94000000000005 C 295.44 201.76 289.78 197.51 283.3 197.51 z M 283.3 182.17 L 283.3 182.17 C 289.77000000000004 182.17 295.43 177.92 297.36 171.73999999999998 C 303.29 152.76 318.27000000000004 137.77999999999997 337.25 131.84999999999997 C 343.43 129.91999999999996 347.68 124.25999999999996 347.68 117.78999999999996 L 347.68 117.78999999999996 C 347.68 107.83999999999996 338.01 100.80999999999996 328.51 103.76999999999997 C 300.31 112.54999999999997 278.06 134.79999999999995 269.28 162.99999999999997 C 266.33 172.5 273.35 182.17 283.3 182.17 z M 427.41 182.17 L 427.41 182.17 C 437.36 182.17 444.39000000000004 172.5 441.43 163 C 432.65000000000003 134.8 410.4 112.55 382.2 103.77000000000001 C 372.7 100.81000000000002 363.03 107.83000000000001 363.03 117.79 L 363.03 117.79 C 363.03 124.26 367.28 129.92000000000002 373.46 131.85 C 392.44 137.78 407.41999999999996 152.76 413.34999999999997 171.74 C 415.28 177.91 420.93 182.17 427.41 182.17 z M 363.03 261.89 L 363.03 261.89 C 363.03 271.84 372.7 278.87 382.2 275.90999999999997 C 410.4 267.13 432.65 244.87999999999997 441.43 216.67999999999998 C 444.39 207.17999999999998 437.37 197.51 427.41 197.51 L 427.41 197.51 C 420.94 197.51 415.28000000000003 201.76 413.35 207.94 C 407.42 226.92 392.44 241.9 373.46000000000004 247.82999999999998 C 367.28 249.76 363.03 255.42 363.03 261.89 z" stroke-linecap="round" />
</g>
</svg>
